ISO-10303-21;
HEADER;
FILE_DESCRIPTION(('SuperOne CAD preview fixture'),'2;1');
FILE_NAME('box.step','2026-10-02T00:00:00',(''),(''),'','','');
FILE_SCHEMA(('AUTOMOTIVE_DESIGN { 1 0 10303 214 1 1 1 1 }'));
ENDSEC;
DATA;
#1=APPLICATION_CONTEXT('automotive design');
#2=APPLICATION_PROTOCOL_DEFINITION('international standard','automotive_design',2000,#1);
#3=PRODUCT_CONTEXT('',#1,'mechanical');
#4=PRODUCT('box','box','',(#3));
#5=PRODUCT_DEFINITION_FORMATION('','',#4);
#6=PRODUCT_DEFINITION_CONTEXT('part definition',#1,'design');
#7=PRODUCT_DEFINITION('design','',#5,#6);
#8=PRODUCT_DEFINITION_SHAPE('','',#7);
#9=(LENGTH_UNIT()NAMED_UNIT(*)SI_UNIT(.MILLI.,.METRE.));
#10=(NAMED_UNIT(*)PLANE_ANGLE_UNIT()SI_UNIT($,.RADIAN.));
#11=(NAMED_UNIT(*)SI_UNIT($,.STERADIAN.)SOLID_ANGLE_UNIT());
#12=UNCERTAINTY_MEASURE_WITH_UNIT(LENGTH_MEASURE(1.E-07),#9,'distance_accuracy_value','');
#13=(GEOMETRIC_REPRESENTATION_CONTEXT(3)GLOBAL_UNCERTAINTY_ASSIGNED_CONTEXT((#12))GLOBAL_UNIT_ASSIGNED_CONTEXT((#9,#10,#11))REPRESENTATION_CONTEXT('',''));
#14=CARTESIAN_POINT('',(0.0,0.0,0.0));
#15=VERTEX_POINT('',#14);
#16=CARTESIAN_POINT('',(20.0,0.0,0.0));
#17=VERTEX_POINT('',#16);
#18=CARTESIAN_POINT('',(0.0,20.0,0.0));
#19=VERTEX_POINT('',#18);
#20=CARTESIAN_POINT('',(20.0,20.0,0.0));
#21=VERTEX_POINT('',#20);
#22=CARTESIAN_POINT('',(0.0,0.0,10.0));
#23=VERTEX_POINT('',#22);
#24=CARTESIAN_POINT('',(20.0,0.0,10.0));
#25=VERTEX_POINT('',#24);
#26=CARTESIAN_POINT('',(0.0,20.0,10.0));
#27=VERTEX_POINT('',#26);
#28=CARTESIAN_POINT('',(20.0,20.0,10.0));
#29=VERTEX_POINT('',#28);
#30=CARTESIAN_POINT('',(0.0,0.0,0.0));
#31=DIRECTION('',(0.0,1.0,0.0));
#32=VECTOR('',#31,20.0);
#33=LINE('',#30,#32);
#34=EDGE_CURVE('',#15,#19,#33,.T.);
#35=ORIENTED_EDGE('',*,*,#34,.T.);
#36=CARTESIAN_POINT('',(0.0,20.0,0.0));
#37=DIRECTION('',(1.0,0.0,0.0));
#38=VECTOR('',#37,20.0);
#39=LINE('',#36,#38);
#40=EDGE_CURVE('',#19,#21,#39,.T.);
#41=ORIENTED_EDGE('',*,*,#40,.T.);
#42=CARTESIAN_POINT('',(20.0,20.0,0.0));
#43=DIRECTION('',(0.0,-1.0,0.0));
#44=VECTOR('',#43,20.0);
#45=LINE('',#42,#44);
#46=EDGE_CURVE('',#21,#17,#45,.T.);
#47=ORIENTED_EDGE('',*,*,#46,.T.);
#48=CARTESIAN_POINT('',(20.0,0.0,0.0));
#49=DIRECTION('',(-1.0,0.0,0.0));
#50=VECTOR('',#49,20.0);
#51=LINE('',#48,#50);
#52=EDGE_CURVE('',#17,#15,#51,.T.);
#53=ORIENTED_EDGE('',*,*,#52,.T.);
#54=EDGE_LOOP('',(#35,#41,#47,#53));
#55=FACE_OUTER_BOUND('',#54,.T.);
#56=CARTESIAN_POINT('',(0.0,0.0,0.0));
#57=DIRECTION('',(0.0,0.0,-1.0));
#58=DIRECTION('',(1.0,0.0,0.0));
#59=AXIS2_PLACEMENT_3D('',#56,#57,#58);
#60=PLANE('',#59);
#61=ADVANCED_FACE('',(#55),#60,.T.);
#62=CARTESIAN_POINT('',(0.0,0.0,10.0));
#63=DIRECTION('',(1.0,0.0,0.0));
#64=VECTOR('',#63,20.0);
#65=LINE('',#62,#64);
#66=EDGE_CURVE('',#23,#25,#65,.T.);
#67=ORIENTED_EDGE('',*,*,#66,.T.);
#68=CARTESIAN_POINT('',(20.0,0.0,10.0));
#69=DIRECTION('',(0.0,1.0,0.0));
#70=VECTOR('',#69,20.0);
#71=LINE('',#68,#70);
#72=EDGE_CURVE('',#25,#29,#71,.T.);
#73=ORIENTED_EDGE('',*,*,#72,.T.);
#74=CARTESIAN_POINT('',(20.0,20.0,10.0));
#75=DIRECTION('',(-1.0,0.0,0.0));
#76=VECTOR('',#75,20.0);
#77=LINE('',#74,#76);
#78=EDGE_CURVE('',#29,#27,#77,.T.);
#79=ORIENTED_EDGE('',*,*,#78,.T.);
#80=CARTESIAN_POINT('',(0.0,20.0,10.0));
#81=DIRECTION('',(0.0,-1.0,0.0));
#82=VECTOR('',#81,20.0);
#83=LINE('',#80,#82);
#84=EDGE_CURVE('',#27,#23,#83,.T.);
#85=ORIENTED_EDGE('',*,*,#84,.T.);
#86=EDGE_LOOP('',(#67,#73,#79,#85));
#87=FACE_OUTER_BOUND('',#86,.T.);
#88=CARTESIAN_POINT('',(0.0,0.0,10.0));
#89=DIRECTION('',(0.0,0.0,1.0));
#90=DIRECTION('',(1.0,0.0,0.0));
#91=AXIS2_PLACEMENT_3D('',#88,#89,#90);
#92=PLANE('',#91);
#93=ADVANCED_FACE('',(#87),#92,.T.);
#94=ORIENTED_EDGE('',*,*,#52,.F.);
#95=CARTESIAN_POINT('',(20.0,0.0,0.0));
#96=DIRECTION('',(0.0,0.0,1.0));
#97=VECTOR('',#96,10.0);
#98=LINE('',#95,#97);
#99=EDGE_CURVE('',#17,#25,#98,.T.);
#100=ORIENTED_EDGE('',*,*,#99,.T.);
#101=ORIENTED_EDGE('',*,*,#66,.F.);
#102=CARTESIAN_POINT('',(0.0,0.0,10.0));
#103=DIRECTION('',(0.0,0.0,-1.0));
#104=VECTOR('',#103,10.0);
#105=LINE('',#102,#104);
#106=EDGE_CURVE('',#23,#15,#105,.T.);
#107=ORIENTED_EDGE('',*,*,#106,.T.);
#108=EDGE_LOOP('',(#94,#100,#101,#107));
#109=FACE_OUTER_BOUND('',#108,.T.);
#110=CARTESIAN_POINT('',(0.0,0.0,0.0));
#111=DIRECTION('',(0.0,-1.0,0.0));
#112=DIRECTION('',(1.0,0.0,0.0));
#113=AXIS2_PLACEMENT_3D('',#110,#111,#112);
#114=PLANE('',#113);
#115=ADVANCED_FACE('',(#109),#114,.T.);
#116=CARTESIAN_POINT('',(0.0,20.0,0.0));
#117=DIRECTION('',(0.0,0.0,1.0));
#118=VECTOR('',#117,10.0);
#119=LINE('',#116,#118);
#120=EDGE_CURVE('',#19,#27,#119,.T.);
#121=ORIENTED_EDGE('',*,*,#120,.T.);
#122=ORIENTED_EDGE('',*,*,#78,.F.);
#123=CARTESIAN_POINT('',(20.0,20.0,10.0));
#124=DIRECTION('',(0.0,0.0,-1.0));
#125=VECTOR('',#124,10.0);
#126=LINE('',#123,#125);
#127=EDGE_CURVE('',#29,#21,#126,.T.);
#128=ORIENTED_EDGE('',*,*,#127,.T.);
#129=ORIENTED_EDGE('',*,*,#40,.F.);
#130=EDGE_LOOP('',(#121,#122,#128,#129));
#131=FACE_OUTER_BOUND('',#130,.T.);
#132=CARTESIAN_POINT('',(0.0,20.0,0.0));
#133=DIRECTION('',(0.0,1.0,0.0));
#134=DIRECTION('',(1.0,0.0,0.0));
#135=AXIS2_PLACEMENT_3D('',#132,#133,#134);
#136=PLANE('',#135);
#137=ADVANCED_FACE('',(#131),#136,.T.);
#138=ORIENTED_EDGE('',*,*,#106,.F.);
#139=ORIENTED_EDGE('',*,*,#84,.F.);
#140=ORIENTED_EDGE('',*,*,#120,.F.);
#141=ORIENTED_EDGE('',*,*,#34,.F.);
#142=EDGE_LOOP('',(#138,#139,#140,#141));
#143=FACE_OUTER_BOUND('',#142,.T.);
#144=CARTESIAN_POINT('',(0.0,0.0,0.0));
#145=DIRECTION('',(-1.0,0.0,0.0));
#146=DIRECTION('',(0.0,1.0,0.0));
#147=AXIS2_PLACEMENT_3D('',#144,#145,#146);
#148=PLANE('',#147);
#149=ADVANCED_FACE('',(#143),#148,.T.);
#150=ORIENTED_EDGE('',*,*,#46,.F.);
#151=ORIENTED_EDGE('',*,*,#127,.F.);
#152=ORIENTED_EDGE('',*,*,#72,.F.);
#153=ORIENTED_EDGE('',*,*,#99,.F.);
#154=EDGE_LOOP('',(#150,#151,#152,#153));
#155=FACE_OUTER_BOUND('',#154,.T.);
#156=CARTESIAN_POINT('',(20.0,0.0,0.0));
#157=DIRECTION('',(1.0,0.0,0.0));
#158=DIRECTION('',(0.0,1.0,0.0));
#159=AXIS2_PLACEMENT_3D('',#156,#157,#158);
#160=PLANE('',#159);
#161=ADVANCED_FACE('',(#155),#160,.T.);
#162=CLOSED_SHELL('',(#61,#93,#115,#137,#149,#161));
#163=MANIFOLD_SOLID_BREP('box',#162);
#164=CARTESIAN_POINT('',(0.0,0.0,0.0));
#165=DIRECTION('',(0.0,0.0,1.0));
#166=DIRECTION('',(1.0,0.0,0.0));
#167=AXIS2_PLACEMENT_3D('',#164,#165,#166);
#168=ADVANCED_BREP_SHAPE_REPRESENTATION('box',(#167,#163),#13);
#169=SHAPE_DEFINITION_REPRESENTATION(#8,#168);
ENDSEC;
END-ISO-10303-21;
